<?xml version="1.0" standalone="no"?>
<!DOCTYPE svg PUBLIC "-//W3C//DTD SVG 20010904//EN"
 "http://www.w3.org/TR/2001/REC-SVG-20010904/DTD/svg10.dtd">
<svg version="1.0" xmlns="http://www.w3.org/2000/svg"
 width="256.000000pt" height="256.000000pt" viewBox="0 0 256.000000 256.000000"
 preserveAspectRatio="xMidYMid meet">
<metadata>
Created by potrace 1.10, written by Peter Selinger 2001-2011
</metadata>
<g transform="translate(0.000000,256.000000) scale(0.100000,-0.100000)"
fill="#fb6096" stroke="none">
<path d="M299 2483 c-109 -81 -299 -263 -299 -285 0 -7 33 21 73 62 102 104
206 193 322 274 11 8 17 17 14 21 -4 3 -53 -29 -110 -72z"/>
<path d="M773 2523 c-99 -239 -198 -414 -301 -532 -75 -85 -208 -181 -233
-166 -5 4 -8 1 -7 -6 2 -6 -2 -13 -9 -16 -13 -5 -12 18 7 135 6 41 10 76 7 78
-3 3 -12 -39 -22 -93 -17 -102 -24 -124 -42 -130 -13 -5 5 88 36 186 11 35 16
60 11 55 -14 -15 -58 -156 -65 -205 l-6 -45 -47 -3 c-42 -3 -71 -6 -94 -10 -5
0 -8 -5 -8 -9 0 -4 42 -4 92 0 81 6 104 13 178 49 68 34 102 60 175 133 125
125 195 238 326 525 20 44 41 76 53 81 19 8 18 9 -7 9 -23 1 -31 -5 -44 -36z"/>
<path d="M1058 2555 c-3 -6 -22 -52 -42 -104 -48 -124 -122 -273 -180 -359
-62 -94 -232 -255 -334 -315 -140 -85 -338 -138 -453 -122 -27 4 -49 3 -49 -2
0 -9 32 -15 98 -16 38 0 42 -2 35 -21 -10 -26 -9 -281 0 -361 15 -120 84 -304
126 -338 9 -7 3 9 -11 34 -58 100 -106 303 -108 459 -3 158 0 188 16 204 8 9
54 27 102 42 146 44 298 120 358 178 9 9 69 58 92 76 41 31 168 205 222 305
41 76 142 325 137 339 -2 6 -6 6 -9 1z"/>
<path d="M2330 2553 c0 -4 20 -28 45 -53 46 -47 136 -188 157 -246 7 -19 15
-34 20 -34 23 0 -58 160 -128 251 -40 52 -94 99 -94 82z"/>
<path d="M2076 2502 c-3 -5 1 -34 8 -63 8 -30 17 -75 19 -101 3 -26 8 -52 11
-56 3 -5 8 -43 10 -85 3 -41 7 -80 8 -87 2 -7 -25 -23 -62 -37 -86 -33 -101
-47 -89 -83 6 -15 18 -35 28 -44 17 -16 22 -15 72 4 30 11 55 20 57 20 1 0 2
-31 2 -68 l0 -68 -50 -21 -49 -21 -7 22 c-3 11 -21 39 -40 62 -56 69 -98 126
-144 194 -24 36 -47 67 -52 68 -4 2 -8 8 -8 14 0 5 -13 37 -29 71 -33 68 -66
156 -77 202 -7 26 -8 27 -11 8 -5 -27 40 -163 77 -232 l29 -53 -31 6 c-17 3
-57 6 -90 6 -53 0 -59 2 -53 18 23 52 60 277 45 267 -4 -2 -10 -30 -14 -62
-14 -121 -46 -223 -103 -322 -103 -179 -193 -282 -309 -357 -108 -69 -183 -94
-142 -47 9 10 21 29 28 43 12 23 12 24 -3 11 -20 -16 -23 -1 -4 18 6 8 -17 -8
-54 -36 -36 -27 -96 -62 -135 -77 -110 -45 -114 -47 -70 -42 48 6 149 54 200
95 22 17 42 29 45 25 7 -6 -73 -84 -104 -101 -37 -21 -9 -23 46 -4 129 44 248
121 345 223 64 66 154 197 195 281 l23 47 52 0 c28 0 72 -3 98 -6 45 -7 50
-10 96 -79 26 -39 76 -106 110 -149 50 -64 68 -96 95 -175 37 -109 74 -188
101 -213 18 -16 19 -14 16 84 -3 76 -1 103 10 109 23 15 28 10 28 -26 0 -41
-46 -458 -62 -560 -22 -146 -87 -285 -179 -385 -43 -47 -45 -51 -21 -45 47 12
86 32 135 68 26 20 47 33 47 28 0 -5 -20 -36 -46 -70 -73 -97 -220 -184 -438
-257 -55 -19 -100 -33 -101 -31 -8 10 -27 97 -26 117 7 136 5 156 -20 200 -42
78 -69 85 -303 82 -228 -3 -270 -13 -302 -74 -22 -43 -23 -142 0 -186 29 -56
58 -64 215 -56 94 5 164 3 219 -6 l80 -12 -5 -42 c-3 -22 -8 -43 -10 -46 -2
-2 -66 -4 -141 -4 -126 -1 -148 2 -279 37 -267 70 -418 138 -528 239 -104 96
-138 183 -150 393 -4 61 -13 142 -21 180 -18 90 -18 130 2 216 16 69 16 69 50
69 19 0 34 -2 34 -5 0 -3 -12 -24 -27 -47 -24 -36 -28 -51 -28 -117 0 -80 13
-119 60 -176 l24 -30 -19 53 c-24 63 -25 102 -4 171 31 106 129 165 274 165
87 0 142 -23 184 -76 28 -36 34 -29 11 12 -22 39 -18 46 11 19 l27 -24 -17 32
c-21 41 -32 48 -39 22 l-5 -20 -39 20 c-42 21 -128 40 -159 34 -10 -1 -30 -5
-44 -7 -80 -11 -141 -44 -181 -97 -28 -36 -53 -102 -51 -132 0 -10 -5 -16 -11
-14 -23 7 -9 107 23 164 16 28 26 54 22 57 -4 2 -22 6 -41 8 -27 2 -38 -2 -52
-22 -36 -50 -45 -184 -19 -296 10 -43 18 -108 18 -144 -1 -36 2 -75 6 -87 4
-13 3 -23 -1 -23 -10 0 -35 74 -52 151 -17 74 -24 182 -24 347 0 84 -4 147 -8
140 -14 -21 -10 -306 6 -416 14 -99 38 -179 102 -344 34 -85 85 -161 134 -199
18 -13 37 -29 43 -35 19 -19 157 -91 216 -114 30 -11 64 -25 75 -30 19 -8 181
-51 274 -72 41 -10 43 -12 26 -24 -16 -12 -21 -12 -34 0 -9 8 -39 21 -67 29
-57 17 -84 9 -84 -26 0 -31 -11 -43 -43 -51 -16 -4 -34 -11 -40 -16 -89 -70
-87 -67 -87 -141 0 -53 4 -71 15 -75 13 -5 12 -10 -4 -33 -23 -33 -38 -76 -22
-67 6 4 11 11 11 16 0 11 122 171 145 190 9 7 40 21 68 31 l52 17 -48 -41
c-53 -47 -97 -104 -97 -125 0 -12 10 -13 45 -9 41 6 46 4 67 -23 12 -17 27
-30 34 -30 12 0 59 90 93 176 9 24 17 30 32 27 17 -5 19 -15 19 -109 0 -61 4
-105 11 -109 5 -4 27 5 48 19 36 25 39 26 74 11 20 -8 39 -15 42 -15 18 0 -10
81 -63 182 -2 4 18 -4 44 -19 l47 -26 44 23 c47 25 97 76 88 90 -3 5 -2 11 2
13 5 3 8 -23 9 -56 1 -62 32 -171 61 -215 27 -42 23 -17 -9 59 -25 59 -31 90
-33 154 -1 76 17 154 38 155 10 0 9 -4 -9 -66 -8 -30 -14 -62 -12 -72 2 -9 12
13 22 50 27 101 9 129 -40 60 -19 -26 -25 -31 -21 -15 4 16 -1 24 -15 29 -17
5 -14 9 21 25 22 10 41 24 41 31 0 8 4 6 11 -4 8 -14 15 -15 36 -7 14 5 43 13
65 18 37 9 39 8 24 -8 -24 -27 -20 -48 24 -118 l41 -64 -25 -30 c-37 -43 -78
-201 -56 -214 4 -2 10 21 14 53 8 73 49 158 85 176 14 8 52 21 83 29 l57 15
-49 -59 c-89 -107 -156 -219 -130 -219 5 0 12 11 16 25 3 14 9 25 13 25 3 0
12 14 20 31 7 17 35 56 61 88 97 116 97 131 5 107 -55 -14 -70 -8 -37 16 9 7
37 40 62 73 25 33 50 66 57 72 31 34 55 85 45 95 -22 22 -85 -19 -111 -73 -13
-27 -29 -49 -36 -49 -6 0 -24 13 -40 30 l-28 30 64 28 c35 16 69 31 75 33 6 2
49 29 96 58 107 70 187 168 172 214 -3 11 -9 16 -13 11 -12 -17 -76 -61 -99
-69 -22 -6 -23 -5 -13 14 7 12 16 21 21 21 6 0 10 4 10 9 0 6 15 36 34 68 33
57 64 134 72 183 3 14 7 33 10 42 11 37 19 93 29 201 4 37 8 76 10 86 12 61
28 227 29 290 l1 75 93 37 c50 21 92 36 92 33 0 -2 14 2 30 11 29 15 30 15 31
-7 1 -13 3 -41 5 -63 11 -139 3 -412 -13 -438 -3 -5 -8 -26 -10 -46 -10 -73
-82 -268 -135 -360 -34 -60 -82 -125 -133 -179 -44 -47 -80 -90 -80 -96 0 -40
147 50 253 156 113 112 212 287 211 373 l0 40 -15 -53 c-35 -132 -123 -273
-231 -372 -54 -50 -194 -150 -209 -150 -4 0 19 26 52 57 149 142 241 318 300
573 31 133 42 367 25 520 -26 225 -94 505 -156 646 -14 31 -24 59 -22 60 2 2
20 -19 41 -46 81 -107 163 -315 202 -515 l14 -70 -5 73 c-2 40 -9 87 -14 105
-61 189 -72 218 -127 333 -29 59 -102 140 -115 127 -6 -6 7 -55 30 -121 48
-137 60 -195 38 -186 -8 3 -45 -7 -82 -21 -36 -15 -68 -25 -69 -23 -2 1 -8 30
-14 63 -21 117 -37 173 -66 239 -24 54 -50 83 -60 68z m39 -57 c27 -61 61
-184 71 -262 6 -45 4 -52 -14 -62 -19 -10 -21 -8 -27 47 -11 97 -34 227 -50
278 -17 57 -17 54 -9 54 3 0 16 -25 29 -55z m268 -315 c15 -40 15 -41 -6 -50
-176 -69 -339 -130 -350 -130 -7 0 -19 16 -25 36 -10 35 -10 37 19 48 17 6 99
39 182 72 84 34 155 62 158 63 3 0 13 -17 22 -39z m41 -95 c3 -16 8 -46 11
-65 6 -30 4 -36 -12 -37 -10 0 -56 -15 -102 -32 -98 -36 -96 -36 -98 -13 -3
69 -8 102 -17 102 -9 1 33 18 129 55 11 5 26 9 34 11 7 1 18 7 24 13 14 14 24
3 31 -34z m-224 -72 c0 -10 3 -34 6 -53 5 -32 3 -37 -20 -48 -15 -7 -29 -12
-33 -12 -10 0 9 115 21 122 18 12 26 9 26 -9z m239 -74 c6 -18 11 -35 11 -39
0 -4 -51 -26 -112 -50 -62 -24 -144 -56 -181 -71 l-69 -28 -14 34 c-8 19 -14
38 -14 43 0 7 336 138 362 141 3 1 11 -13 17 -30z m-298 -196 c4 -35 7 -143 3
-143 -4 0 -64 116 -65 126 -1 10 24 24 44 24 9 0 17 -3 18 -7z m-1146 -895
c-32 -17 -66 -50 -86 -83 l-19 -30 0 25 c0 34 25 68 63 84 39 18 71 20 42 4z
m409 -13 c52 -26 77 -62 83 -118 7 -63 -11 -113 -45 -122 -15 -4 -30 -11 -33
-17 -4 -6 -33 -6 -85 2 -52 8 -128 10 -222 6 -142 -7 -142 -7 -167 18 -34 34
-35 118 -2 166 46 70 115 88 327 86 84 -1 113 -5 144 -21z m494 -301 c-54 -76
-162 -207 -173 -210 -6 -2 -27 24 -48 57 -42 68 -39 89 12 107 25 9 32 7 53
-15 46 -50 53 -48 91 20 31 54 59 81 90 86 5 0 -7 -20 -25 -45z m-403 -8 c8
-33 6 -40 -10 -53 -34 -24 -60 -13 -63 28 -6 72 56 93 73 25z m-76 -80 c-2 -3
-29 -7 -59 -10 -44 -4 -47 -4 -17 3 21 4 43 13 50 20 7 7 14 8 21 1 5 -5 8
-12 5 -14z m-451 -1 c63 -19 66 -37 13 -65 -22 -11 -42 -24 -46 -30 -9 -15 1
-12 37 10 40 24 50 25 46 4 -4 -19 -80 -53 -121 -53 -22 -1 -27 3 -23 17 2 9
10 43 17 75 7 31 15 57 19 57 3 0 30 -7 58 -15z m329 -18 c3 -4 -5 -7 -18 -8
-39 -1 -72 -9 -86 -20 -9 -8 -13 -8 -13 0 0 6 -18 14 -40 17 -22 4 -42 10 -45
14 -5 9 193 6 202 -3z m151 -42 c4 -30 -37 -80 -96 -117 l-33 -20 -69 41 c-48
29 -68 46 -64 56 8 19 3 19 70 -10 31 -14 59 -25 62 -25 11 0 -60 48 -89 60
-43 18 -36 30 19 31 26 0 72 6 102 13 69 15 94 7 98 -29z m-353 25 c3 -5 22
-10 41 -10 30 0 34 -3 34 -25 0 -55 -73 -80 -107 -37 -14 17 -17 64 -6 75 10
10 31 8 38 -3z m-242 -67 c-4 -26 -24 -60 -61 -106 -30 -37 -59 -70 -63 -73
-13 -8 -11 103 2 127 9 18 104 87 121 88 4 1 4 -16 1 -36z m166 -129 c-22 -45
-39 -88 -39 -95 0 -8 -12 1 -26 19 -23 29 -30 32 -56 26 -24 -5 -29 -3 -22 7
22 38 83 105 118 131 35 25 40 26 51 11 10 -13 5 -31 -26 -99z m184 49 c24
-41 67 -136 63 -141 -2 -1 -16 2 -32 8 -23 9 -32 8 -55 -9 l-26 -20 -6 92 c-3
51 -3 95 0 100 10 17 35 4 56 -30z"/>
<path d="M1255 2346 c-19 -30 -35 -58 -35 -61 0 -10 -97 -149 -125 -179 -14
-15 -25 -30 -25 -34 0 -9 -147 -153 -206 -203 -40 -33 -74 -59 -119 -89 -114
-76 -167 -109 -208 -129 -59 -30 -73 -48 -20 -26 138 58 349 212 493 361 110
115 182 211 249 335 50 91 52 79 6 -41 -58 -152 -121 -250 -238 -368 -110
-112 -273 -213 -457 -284 -66 -25 -70 -28 -31 -22 24 3 73 19 107 35 l64 28
70 -37 c55 -29 72 -34 82 -24 18 18 0 42 -46 57 -61 21 -61 29 -4 60 67 36
106 64 189 137 37 31 70 54 74 50 5 -4 5 -2 2 4 -4 6 8 29 27 50 61 72 132
191 160 269 11 28 22 55 26 60 14 18 22 93 11 99 -6 4 -26 -17 -46 -48z m-429
-701 c19 -8 33 -19 30 -24 -4 -5 -33 4 -66 21 -66 33 -91 56 -35 33 19 -8 51
-22 71 -30z"/>
<path d="M1631 1770 c-53 -24 -50 -34 5 -19 93 26 193 7 299 -57 66 -39 82
-40 30 0 -108 83 -251 115 -334 76z"/>
<path d="M1625 1706 c-59 -18 -93 -44 -120 -91 -31 -53 -31 -60 0 -39 28 18
32 9 10 -20 -27 -35 -16 -45 16 -15 64 59 203 76 325 38 56 -17 77 -31 124
-77 41 -42 60 -70 69 -104 17 -61 10 -171 -14 -223 -30 -63 -29 -63 20 -10 66
72 85 117 85 201 0 87 -30 155 -95 218 -111 106 -298 160 -420 122z m203 -21
c64 -18 122 -45 122 -58 0 -4 4 -6 8 -3 14 8 101 -74 129 -121 25 -43 29 -57
40 -133 6 -48 -27 -133 -47 -120 -10 6 -11 10 -3 10 7 0 11 6 8 13 -2 6 -6 37
-8 67 -8 97 -64 182 -150 226 -101 53 -240 65 -336 30 -38 -14 -47 -14 -58 -3
-12 11 -10 18 8 41 48 61 173 83 287 51z"/>
<path d="M446 1449 c-36 -28 -36 -80 0 -108 34 -27 55 -26 82 2 28 30 29 80 2
107 -26 26 -51 25 -84 -1z m72 -11 c20 -20 15 -76 -7 -88 -29 -15 -67 3 -73
34 -9 46 49 85 80 54z"/>
<path d="M2361 1333 c-22 -110 -64 -253 -102 -341 -11 -25 -17 -47 -15 -50 7
-7 53 100 81 188 27 85 69 284 63 302 -3 7 -14 -38 -27 -99z"/>
<path d="M2400 1406 c0 -52 -28 -204 -51 -276 -12 -36 -39 -99 -61 -140 -24
-47 -31 -66 -17 -50 62 73 127 267 136 412 3 48 3 88 -1 88 -3 0 -6 -15 -6
-34z"/>
<path d="M1605 1405 c-28 -27 -34 -88 -12 -116 54 -70 157 -37 157 51 0 54
-34 90 -85 90 -25 0 -44 -8 -60 -25z m112 -18 c41 -37 4 -117 -54 -117 -28 0
-73 44 -73 72 0 11 13 32 29 48 32 32 60 32 98 -3z"/>
<path d="M412 1118 c8 -12 21 -24 28 -26 8 -3 6 5 -6 21 -23 32 -42 36 -22 5z"/>
<path d="M507 1068 c30 -29 106 -35 172 -13 68 22 74 35 8 18 -65 -17 -92 -16
-152 2 l-49 14 21 -21z"/>
<path d="M1936 1067 c-18 -13 -18 -14 -2 -20 22 -9 36 -1 36 19 0 18 -11 18
-34 1z"/>
<path d="M443 1018 c-20 -22 -57 -88 -50 -88 2 0 21 25 41 55 39 59 42 68 9
33z"/>
<path d="M1660 1035 c0 -3 13 -11 30 -20 42 -22 137 -19 180 6 26 15 29 18 10
13 -49 -12 -160 -16 -190 -6 -16 6 -30 9 -30 7z"/>
<path d="M500 973 c-28 -44 -41 -80 -22 -57 15 17 63 104 57 104 -3 0 -19 -21
-35 -47z"/>
<path d="M598 978 c-22 -34 -39 -68 -35 -68 8 0 59 82 54 86 -2 3 -11 -6 -19
-18z"/>
<path d="M1933 957 c-11 -19 -28 -46 -38 -60 -9 -15 -15 -27 -11 -27 9 0 80
110 74 116 -3 2 -14 -10 -25 -29z"/>
<path d="M2004 918 c-4 -7 -14 -24 -22 -38 -14 -24 -13 -24 3 -5 20 24 37 55
31 55 -3 0 -8 -6 -12 -12z"/>
<path d="M11 833 c33 -90 131 -199 242 -274 72 -47 66 -50 -16 -7 -77 42 -175
138 -210 208 -19 37 -27 47 -27 31 0 -62 129 -201 237 -254 89 -44 99 -25 20
38 -110 88 -178 159 -214 223 -37 66 -49 79 -32 35z"/>
<path d="M2486 766 c-44 -86 -141 -198 -235 -270 -65 -50 -204 -131 -241 -141
-14 -3 9 12 50 35 193 108 351 254 421 392 27 54 18 47 -25 -17 -91 -137 -199
-237 -373 -345 -89 -55 -115 -80 -83 -80 10 0 126 55 170 81 142 82 285 235
341 366 33 76 17 64 -25 -21z"/>
<path d="M386 616 c9 -30 44 -98 58 -111 6 -7 27 -29 46 -51 42 -46 88 -70
104 -54 14 14 -15 61 -80 130 -29 30 -62 66 -74 80 -28 32 -63 36 -54 6z m172
-162 c19 -24 33 -47 30 -50 -3 -2 -28 13 -55 35 -50 39 -133 150 -133 178 0
15 100 -88 158 -163z"/>
<path d="M80 466 c14 -15 93 -73 175 -129 193 -129 240 -169 287 -241 44 -69
52 -108 9 -49 -36 50 -86 90 -226 183 -69 46 -141 105 -194 159 -46 47 -78 75
-71 61 14 -26 160 -180 172 -180 5 0 132 -83 163 -107 6 -4 36 -28 68 -52 31
-24 70 -60 86 -80 25 -31 31 -33 36 -18 5 10 -3 38 -18 70 -41 82 -137 168
-294 262 -18 11 -75 49 -125 84 -55 38 -83 53 -68 37z"/>
<path d="M713 471 c-6 -3 -16 -32 -23 -64 -20 -88 -4 -95 65 -27 45 44 53 57
42 67 -17 17 -71 33 -84 24z m69 -30 c5 -4 -15 -29 -43 -56 -29 -28 -49 -43
-46 -34 3 9 9 38 12 63 7 46 8 47 39 40 17 -3 34 -9 38 -13z"/>
<path d="M2520 322 c-14 -9 -26 -20 -28 -24 -2 -5 -9 -8 -15 -8 -6 0 -18 -6
-26 -14 -37 -33 -183 -102 -228 -107 -5 -1 -21 -10 -36 -21 -22 -16 -25 -23
-16 -34 6 -8 18 -14 26 -14 18 0 66 -32 110 -73 46 -43 51 -28 6 17 -39 39
-79 64 -123 76 -23 7 -22 8 17 19 94 26 306 141 343 186 16 20 1 18 -30 -3z"/>
<path d="M616 301 c-4 -5 3 -36 14 -69 11 -33 22 -69 25 -80 2 -12 8 -30 14
-39 18 -30 1 43 -26 116 -13 35 -22 66 -20 67 7 7 48 -86 57 -128 l9 -43 -4
50 c-5 71 -52 155 -69 126z"/>
<path d="M2240 262 c-102 -51 -131 -62 -227 -94 -65 -20 -84 -33 -35 -22 69
15 164 50 246 90 49 24 91 42 93 40 6 -5 -86 -62 -141 -86 -26 -12 -89 -32
-140 -45 -104 -27 -97 -32 16 -10 88 17 205 70 263 120 23 20 31 32 20 28 -18
-6 -18 -5 -6 10 17 22 21 23 -89 -31z"/>
<path d="M15 167 c32 -49 243 -190 229 -152 -4 8 -11 15 -17 15 -16 0 -108 64
-164 114 -56 51 -71 58 -48 23z"/>
<path d="M1935 82 c-23 -9 -56 -28 -74 -41 -28 -20 -31 -25 -17 -33 12 -6 35
1 84 28 37 20 69 39 72 42 14 13 -51 -13 -94 -39 -27 -16 -50 -28 -53 -25 -7
7 51 44 103 65 27 11 42 20 34 20 -8 0 -33 -8 -55 -17z"/>
</g>
</svg>
